{
  "accessors": [
    {
      "bufferView": 0,
      "componentType": 5125,
      "count": 19764,
      "type": "SCALAR"
    },
    {
      "bufferView": 1,
      "componentType": 5126,
      "count": 5348,
      "max": [
        -54.0917434692383,
        24.6524066925049,
        -34.0278434753418
      ],
      "min": [
        -73.8091354370117,
        1.4040641784668,
        -36.0276222229004
      ],
      "type": "VEC3"
    },
    {
      "bufferView": 2,
      "componentType": 5126,
      "count": 5348,
      "type": "VEC3"
    },
    {
      "bufferView": 3,
      "componentType": 5126,
      "count": 5348,
      "type": "VEC4"
    },
    {
      "bufferView": 4,
      "componentType": 5126,
      "count": 5348,
      "type": "VEC2"
    }
  ],
  "asset": {
    "generator": "Adobe Substance 3D Painter 8.2.0",
    "version": "2.0"
  },
  "bufferViews": [
    {
      "buffer": 0,
      "byteLength": 79056,
      "target": 34963
    },
    {
      "buffer": 0,
      "byteLength": 64176,
      "byteOffset": 79056,
      "target": 34962
    },
    {
      "buffer": 0,
      "byteLength": 64176,
      "byteOffset": 143232,
      "target": 34962
    },
    {
      "buffer": 0,
      "byteLength": 85568,
      "byteOffset": 207408,
      "target": 34962
    },
    {
      "buffer": 0,
      "byteLength": 42784,
      "byteOffset": 292976,
      "target": 34962
    }
  ],
  "buffers": [
    {
      "byteLength": 335760,
      "uri": "medalAminus.bin"
    }
  ],
  "images": [
    {
      "uri": "lambert1_baseColor.png"
    },
    {
      "uri": "lambert1_occlusionRoughnessMetallic.png"
    },
    {
      "uri": "lambert1_normal.png"
    },
    {
      "uri": "lambert1_emissive.png"
    }
  ],
  "materials": [
    {
      "alphaMode": "BLEND",
      "emissiveFactor": [
        1.0,
        1.0,
        1.0
      ],
      "emissiveTexture": {
        "index": 3
      },
      "name": "lambert1",
      "normalTexture": {
        "index": 2
      },
      "occlusionTexture": {
        "index": 1
      },
      "pbrMetallicRoughness": {
        "baseColorTexture": {
          "index": 0
        },
        "metallicRoughnessTexture": {
          "index": 1
        }
      }
    }
  ],
  "meshes": [
    {
      "name": "medalAMinus",
      "primitives": [
        {
          "attributes": {
            "NORMAL": 2,
            "POSITION": 1,
            "TANGENT": 3,
            "TEXCOORD_0": 4
          },
          "indices": 0,
          "material": 0,
          "mode": 4
        }
      ]
    }
  ],
  "nodes": [
    {
      "children": [
        1
      ],
      "name": "RootNode"
    },
    {
      "children": [
        2
      ],
      "name": "medalAMinus"
    },
    {
      "mesh": 0,
      "name": "medalAMinus"
    }
  ],
  "samplers": [
    {
      "magFilter": 9729,
      "minFilter": 9985,
      "wrapS": 10497,
      "wrapT": 10497
    }
  ],
  "scene": 0,
  "scenes": [
    {
      "name": "Scene",
      "nodes": [
        0
      ]
    }
  ],
  "textures": [
    {
      "sampler": 0,
      "source": 0
    },
    {
      "sampler": 0,
      "source": 1
    },
    {
      "sampler": 0,
      "source": 2
    },
    {
      "sampler": 0,
      "source": 3
    }
  ]
}