<svg width="563" height="166" viewBox="0 0 563 166" fill="none" xmlns="http://www.w3.org/2000/svg">
<path d="M553.875 125.955C551.713 129.966 548.498 133.374 544.743 135.91C539.143 139.689 532.636 141.568 525.982 142.676C517.321 132.732 510.141 121.334 510.429 107.784C510.471 105.969 510.625 104.148 511.089 102.389C511.201 101.975 512.303 98.9497 513.082 97.7455C513.482 97.708 513.882 97.7222 514.289 97.79C515.174 97.9249 516.037 98.3013 516.774 98.8127C517.981 99.6546 518.908 100.917 519.652 102.174C521.638 105.549 522.396 109.467 523.322 113.228C524.565 118.252 525.8 123.276 527.035 128.3C527.344 129.545 532.313 126.158 532.685 125.551C535.766 120.479 539.269 115.672 543.27 111.295C544.821 109.597 546.856 106.576 549.327 106.547C551.853 106.518 554.071 108.393 555.293 110.493C558.016 115.198 556.289 121.481 553.875 125.955ZM513.664 97.268C513.538 97.3401 513.405 97.4128 513.271 97.4848C513.426 97.2991 513.566 97.2108 513.664 97.268ZM555.952 103.017C550.127 101.556 544.14 106.729 540.406 110.565C537.304 113.749 534.44 117.157 531.822 120.746C531.015 117.448 530.201 114.15 529.386 110.852C528.516 107.305 527.828 103.631 526.256 100.309C525.112 97.8853 523.407 95.4161 520.81 94.4266C517.967 93.3452 514.78 94.4908 512.296 95.955C498.434 104.131 505.621 125.12 512.289 135.705C514.051 138.509 516.023 141.158 518.121 143.708C516.711 143.849 515.3 143.983 513.903 144.117C503.27 145.106 489.473 141.676 477.973 140.5C466.473 139.323 460.109 139 451.473 139C450.764 140.222 450.926 142.874 451.473 142.676C452.694 142.239 449.973 143.298 461.473 143.708C472.973 144.117 470.473 143.905 482.473 144.993C492.973 145.191 510.204 148.087 520.501 146.491C523.905 150.354 527.555 154.006 531.183 157.636C532.39 158.837 537.605 154.853 537.002 154.253C534.054 151.308 530.994 148.228 528.053 144.993C528.327 144.922 528.6 144.866 528.874 144.795C538.82 142.182 548.821 137.012 555.636 129.121C558.956 125.275 561.581 120.523 562.318 115.425C563.027 110.514 561.364 104.376 555.952 103.017Z" fill="#FF0000"/>
<path d="M53.7407 64.3142C53.8259 63.9171 53.8956 63.5055 53.9426 63.072C53.9955 62.5943 52.5664 62.8661 51.0757 63.4837C50.8319 61.1466 51.1602 58.6184 51.1969 56.4433C51.2718 52.0119 51.346 47.5804 51.4216 43.149C51.5677 34.464 51.7139 25.779 51.86 17.0933C51.8718 16.4443 49.9456 16.9235 48.2507 17.7686C48.7956 16.2606 49.3588 14.76 49.9654 13.2762C50.984 10.7864 53.7627 3.03984 57.2355 4.00255C58.3634 4.31562 59.252 5.00789 59.9592 5.89491C58.1901 6.57837 56.0913 7.77918 56.2206 8.93223C57.7275 22.3242 58.1203 35.7927 57.4154 49.2486C57.3985 49.5573 57.8641 49.5941 58.5441 49.4544C58.2635 50.4612 57.9735 51.4754 57.6739 52.4822C56.4864 56.4653 55.1565 60.4042 53.7407 64.3142V64.3142ZM27.3739 58.8756C27.545 58.648 27.6419 58.42 27.636 58.2142C27.4275 50.5862 27.2182 42.9653 27.0103 35.3407C31.166 40.216 33.5064 46.4781 34.3355 52.8423C34.3942 53.5551 34.4662 54.2606 34.5514 54.9661C34.5793 55.3262 34.6101 55.6863 34.6285 56.0391C34.6329 56.1273 34.6608 56.1934 34.7085 56.2449C35.0904 58.9052 35.658 61.5433 36.4196 64.1597C36.6751 65.0341 43.0015 62.3371 42.5051 60.6397C41.7319 57.9939 41.1664 55.3115 40.7912 52.6145C41.4976 43.6855 43.0456 34.8491 45.5115 26.2354C45.5534 26.0891 45.6004 25.9436 45.643 25.7966C45.5226 32.9207 45.4029 40.0441 45.2825 47.1689C45.2083 51.6003 45.1334 56.0317 45.0585 60.4631C45.0012 63.8511 44.2903 68.04 46.3127 71.0089C47.1918 72.2949 51.7425 68.9808 52.2213 68.1428C52.3388 67.9444 52.449 67.7386 52.5547 67.5402C51.578 70.1416 50.569 72.7359 49.5439 75.3155C42.6248 69.2672 34.7041 64.4169 27.3739 58.8756V58.8756ZM15.1366 47.7127C15.0272 47.5878 14.9207 47.4555 14.8128 47.3232C15.5559 46.8088 16.0825 46.2503 16.0825 45.7652V27.8735C17.676 28.4107 19.2138 29.1081 20.6619 29.962C20.8807 37.9592 21.0988 45.9563 21.3177 53.952C19.1352 52.0192 17.057 49.9615 15.1366 47.7127ZM6.25029 27.7978C6.24956 27.7992 6.36703 27.4068 6.49921 26.9967C7.06172 26.9078 7.66686 26.7446 8.16254 26.7145C9.11132 26.6572 10.0571 26.6807 10.9986 26.7674C10.3817 27.2326 9.9617 27.7228 9.9617 28.1586V40.3498C9.63785 39.7678 9.32278 39.1791 9.02978 38.5802C7.54933 35.5517 5.63638 31.2562 6.25029 27.7978V27.7978ZM6.85244 26.0825C6.96039 26.1802 6.88476 26.2699 6.71733 26.3537C6.78195 26.1803 6.83334 26.0663 6.85244 26.0825ZM58.713 0.37437C49.3823 3.01044 45.1459 12.3671 42.1416 20.6832C40.0781 26.3941 38.4251 32.2351 37.1737 38.1627C35.6375 34.9329 33.5718 31.9712 30.8627 29.491C25.0217 24.1431 16.6083 21.4093 8.8227 23.4986C5.46305 24.3989 1.05477 26.6756 0.210264 30.3802C-0.653332 34.173 1.3184 38.7632 2.94425 42.0981C6.70338 49.7998 13.0195 55.9877 19.7124 61.1834C28.4607 67.9812 38.1225 73.5517 46.1284 81.2828C46.3429 81.4886 46.6718 81.54 47.0662 81.4958C46.9215 81.8486 46.7768 82.2089 46.6329 82.5689C46.2062 83.6198 49.1679 82.4291 49.3419 82.3484C50.5066 81.8044 52.2338 80.8932 52.753 79.6146C60.8338 59.6547 69.2076 38.8286 68.9961 16.9338C68.9351 10.5916 68.3998 -2.36238 58.713 0.37437" fill="#FF0000"/>
<path d="M48.4867 76.3C48.1534 78.9667 47.7867 81.4 47.3867 83.6C47.0534 85.8 46.8201 88.1667 46.6867 90.7C49.1534 89.5667 51.9534 88.5 55.0867 87.5C58.2867 86.4333 61.4867 85.6 64.6867 85C66.2201 84.6667 67.3534 84.6333 68.0867 84.9C68.8201 85.1 69.3201 85.4667 69.5867 86C69.7867 86.5333 69.7867 87.2 69.5867 88C69.4534 88.7333 68.7534 89.3 67.4867 89.7C64.0201 90.7667 60.6201 91.9667 57.2867 93.3C54.0201 94.6333 50.6201 96.2 47.0867 98C46.1534 98.5333 45.2867 98.7333 44.4867 98.6C43.0201 98.4667 41.8867 97.8 41.0867 96.6C40.2867 95.4 39.8867 93.9333 39.8867 92.2C39.8867 89.3333 40.0534 86.6667 40.3867 84.2C40.7201 81.7333 41.1867 78.9333 41.7867 75.8C41.7867 75.6667 41.8201 75.5333 41.8867 75.4C41.5534 75.4667 41.2534 75.5 40.9867 75.5C40.7201 75.5 40.4201 75.5 40.0867 75.5C38.8201 75.5667 37.6867 75.2667 36.6867 74.6C35.7534 73.8667 35.2534 73.1333 35.1867 72.4C35.0534 72 35.1201 71.5333 35.3867 71C35.6534 70.4667 36.4534 70.0667 37.7867 69.8C41.5201 69.2 45.2867 68.7667 49.0867 68.5C52.8867 68.2333 56.2867 68.3 59.2867 68.7C60.4867 68.8333 61.3534 69.2667 61.8867 70C62.4201 70.7333 62.6867 71.2667 62.6867 71.6C62.6867 71.9333 62.5534 72.2667 62.2867 72.6C62.0867 72.9333 61.5534 73.1667 60.6867 73.3C58.5534 73.6333 56.4201 73.9333 54.2867 74.2C52.1534 74.4667 50.0534 74.7 47.9867 74.9C48.1867 75.2333 48.3534 75.7 48.4867 76.3ZM60.9867 134.7C59.8534 134.7 59.0201 134.233 58.4867 133.3C57.9534 132.367 57.6201 131.567 57.4867 130.9C57.2867 129.5 57.1867 127.867 57.1867 126C57.1867 124.133 57.2201 122.2 57.2867 120.2C57.4201 118.133 57.6201 116.1 57.8867 114.1C58.1534 112.1 58.4534 110.3 58.7867 108.7C56.3201 109.233 53.8534 109.8 51.3867 110.4C48.9201 110.933 46.5201 111.5 44.1867 112.1C42.9201 112.433 41.7534 112.367 40.6867 111.9C39.6867 111.433 39.1534 110.733 39.0867 109.8C38.9534 108.8 39.4201 107.967 40.4867 107.3C41.6201 106.633 42.7534 106.133 43.8867 105.8C48.4867 104.467 53.2201 103.4 58.0867 102.6C63.0201 101.8 68.0534 101.067 73.1867 100.4C73.9201 100.267 74.8201 100.3 75.8867 100.5C76.9534 100.7 77.5867 101.167 77.7867 101.9C77.9867 102.633 77.8201 103.367 77.2867 104.1C76.8201 104.767 76.0867 105.233 75.0867 105.5C73.3534 105.833 71.5867 106.2 69.7867 106.6C67.9867 106.933 66.1201 107.267 64.1867 107.6C64.5201 108.133 64.7534 108.733 64.8867 109.4C65.0867 110.067 65.1201 110.667 64.9867 111.2C64.8534 112.267 64.6867 113.633 64.4867 115.3C64.2867 116.9 64.1201 118.667 63.9867 120.6C63.8534 122.467 63.7201 124.367 63.5867 126.3C63.5201 128.233 63.4867 130.033 63.4867 131.7C63.4867 132.5 63.1867 133.2 62.5867 133.8C62.0534 134.4 61.5201 134.7 60.9867 134.7ZM106.52 74.5C106.72 75.7 106.854 77.1667 106.92 78.9C107.054 80.5667 107.12 82.3333 107.12 84.2C107.187 86.0667 107.22 87.9667 107.22 89.9C107.22 91.8333 107.187 93.6333 107.12 95.3C109.654 94.9667 112.22 94.8667 114.82 95C115.287 95 115.82 95.0667 116.42 95.2C117.087 95.3333 117.72 95.5667 118.32 95.9C118.92 96.2333 119.42 96.6667 119.82 97.2C120.22 97.7333 120.387 98.4 120.32 99.2C120.254 99.8 119.854 100.233 119.12 100.5C118.454 100.7 117.854 100.8 117.32 100.8C112.054 101 107.087 101.6 102.42 102.6C97.8203 103.533 92.9203 104.733 87.7203 106.2C87.187 106.333 86.5536 106.4 85.8203 106.4C85.1536 106.4 84.487 106.3 83.8203 106.1C83.2203 105.9 82.687 105.6 82.2203 105.2C81.7536 104.733 81.487 104.133 81.4203 103.4C81.3536 102.533 81.6536 101.867 82.3203 101.4C83.0536 100.867 83.8536 100.433 84.7203 100.1C86.0536 99.5667 88.187 98.9333 91.1203 98.2C94.0536 97.4 97.3203 96.7 100.92 96.1C100.92 94.6333 100.887 93 100.82 91.2C100.82 89.3333 100.754 87.4667 100.62 85.6C100.554 83.7333 100.42 81.9333 100.22 80.2C100.087 78.4 99.9203 76.8 99.7203 75.4C98.2536 75.6 96.6203 76.0333 94.8203 76.7C93.0203 77.3 91.4203 77.8667 90.0203 78.4C88.9536 78.8 87.987 78.9 87.1203 78.7C86.2536 78.4333 85.6203 78 85.2203 77.4C84.8203 76.8 84.7203 76.1333 84.9203 75.4C85.1203 74.6667 85.5536 74.0667 86.2203 73.6C86.687 73.2667 87.4203 72.8667 88.4203 72.4C89.487 71.9333 90.687 71.4667 92.0203 71C93.3536 70.5333 94.7536 70.1667 96.2203 69.9C97.687 69.5667 99.087 69.4 100.42 69.4C102.42 69.4 103.854 69.8333 104.72 70.7C105.654 71.5 106.254 72.7667 106.52 74.5ZM100.82 113.5C100.487 115.033 100.22 116.8 100.02 118.8C99.8203 120.733 99.6536 122.467 99.5203 124C101.854 123.667 104.587 123.1 107.72 122.3C110.854 121.5 113.654 120.567 116.12 119.5C117.32 118.967 118.42 118.9 119.42 119.3C120.42 119.633 121.054 120.333 121.32 121.4C121.654 122.667 120.554 123.867 118.02 125C114.62 126.533 111.354 127.833 108.22 128.9C105.154 129.967 102.02 130.7 98.8203 131.1C97.687 131.233 96.7203 131.167 95.9203 130.9C95.1203 130.633 94.487 130.233 94.0203 129.7C93.5536 129.167 93.2203 128.533 93.0203 127.8C92.887 127.067 92.8203 126.3 92.8203 125.5C92.8203 123.167 93.0203 120.833 93.4203 118.5C93.8203 116.1 94.3536 113.8 95.0203 111.6C95.3536 110.467 95.7203 109.767 96.1203 109.5C96.5203 109.167 97.087 109.033 97.8203 109.1C98.487 109.167 99.0203 109.4 99.4203 109.8C99.887 110.2 100.22 110.633 100.42 111.1C100.687 111.567 100.82 112.033 100.82 112.5C100.887 112.967 100.887 113.3 100.82 113.5ZM163.916 76.3C163.583 78.9667 163.216 81.4 162.816 83.6C162.483 85.8 162.25 88.1667 162.116 90.7C164.583 89.5667 167.383 88.5 170.516 87.5C173.716 86.4333 176.916 85.6 180.116 85C181.65 84.6667 182.783 84.6333 183.516 84.9C184.25 85.1 184.75 85.4667 185.016 86C185.216 86.5333 185.216 87.2 185.016 88C184.883 88.7333 184.183 89.3 182.916 89.7C179.45 90.7667 176.05 91.9667 172.716 93.3C169.45 94.6333 166.05 96.2 162.516 98C161.583 98.5333 160.716 98.7333 159.916 98.6C158.45 98.4667 157.316 97.8 156.516 96.6C155.716 95.4 155.316 93.9333 155.316 92.2C155.316 89.3333 155.483 86.6667 155.816 84.2C156.15 81.7333 156.616 78.9333 157.216 75.8C157.216 75.6667 157.25 75.5333 157.316 75.4C156.983 75.4667 156.683 75.5 156.416 75.5C156.15 75.5 155.85 75.5 155.516 75.5C154.25 75.5667 153.116 75.2667 152.116 74.6C151.183 73.8667 150.683 73.1333 150.616 72.4C150.483 72 150.55 71.5333 150.816 71C151.083 70.4667 151.883 70.0667 153.216 69.8C156.95 69.2 160.716 68.7667 164.516 68.5C168.316 68.2333 171.716 68.3 174.716 68.7C175.916 68.8333 176.783 69.2667 177.316 70C177.85 70.7333 178.116 71.2667 178.116 71.6C178.116 71.9333 177.983 72.2667 177.716 72.6C177.516 72.9333 176.983 73.1667 176.116 73.3C173.983 73.6333 171.85 73.9333 169.716 74.2C167.583 74.4667 165.483 74.7 163.416 74.9C163.616 75.2333 163.783 75.7 163.916 76.3ZM176.416 134.7C175.283 134.7 174.45 134.233 173.916 133.3C173.383 132.367 173.05 131.567 172.916 130.9C172.716 129.5 172.616 127.867 172.616 126C172.616 124.133 172.65 122.2 172.716 120.2C172.85 118.133 173.05 116.1 173.316 114.1C173.583 112.1 173.883 110.3 174.216 108.7C171.75 109.233 169.283 109.8 166.816 110.4C164.35 110.933 161.95 111.5 159.616 112.1C158.35 112.433 157.183 112.367 156.116 111.9C155.116 111.433 154.583 110.733 154.516 109.8C154.383 108.8 154.85 107.967 155.916 107.3C157.05 106.633 158.183 106.133 159.316 105.8C163.916 104.467 168.65 103.4 173.516 102.6C178.45 101.8 183.483 101.067 188.616 100.4C189.35 100.267 190.25 100.3 191.316 100.5C192.383 100.7 193.016 101.167 193.216 101.9C193.416 102.633 193.25 103.367 192.716 104.1C192.25 104.767 191.516 105.233 190.516 105.5C188.783 105.833 187.016 106.2 185.216 106.6C183.416 106.933 181.55 107.267 179.616 107.6C179.95 108.133 180.183 108.733 180.316 109.4C180.516 110.067 180.55 110.667 180.416 111.2C180.283 112.267 180.116 113.633 179.916 115.3C179.716 116.9 179.55 118.667 179.416 120.6C179.283 122.467 179.15 124.367 179.016 126.3C178.95 128.233 178.916 130.033 178.916 131.7C178.916 132.5 178.616 133.2 178.016 133.8C177.483 134.4 176.95 134.7 176.416 134.7ZM221.95 74.5C222.15 75.7 222.283 77.1667 222.35 78.9C222.483 80.5667 222.55 82.3333 222.55 84.2C222.617 86.0667 222.65 87.9667 222.65 89.9C222.65 91.8333 222.617 93.6333 222.55 95.3C225.083 94.9667 227.65 94.8667 230.25 95C230.717 95 231.25 95.0667 231.85 95.2C232.517 95.3333 233.15 95.5667 233.75 95.9C234.35 96.2333 234.85 96.6667 235.25 97.2C235.65 97.7333 235.817 98.4 235.75 99.2C235.683 99.8 235.283 100.233 234.55 100.5C233.883 100.7 233.283 100.8 232.75 100.8C227.483 101 222.517 101.6 217.85 102.6C213.25 103.533 208.35 104.733 203.15 106.2C202.617 106.333 201.983 106.4 201.25 106.4C200.583 106.4 199.917 106.3 199.25 106.1C198.65 105.9 198.117 105.6 197.65 105.2C197.183 104.733 196.917 104.133 196.85 103.4C196.783 102.533 197.083 101.867 197.75 101.4C198.483 100.867 199.283 100.433 200.15 100.1C201.483 99.5667 203.617 98.9333 206.55 98.2C209.483 97.4 212.75 96.7 216.35 96.1C216.35 94.6333 216.317 93 216.25 91.2C216.25 89.3333 216.183 87.4667 216.05 85.6C215.983 83.7333 215.85 81.9333 215.65 80.2C215.517 78.4 215.35 76.8 215.15 75.4C213.683 75.6 212.05 76.0333 210.25 76.7C208.45 77.3 206.85 77.8667 205.45 78.4C204.383 78.8 203.417 78.9 202.55 78.7C201.683 78.4333 201.05 78 200.65 77.4C200.25 76.8 200.15 76.1333 200.35 75.4C200.55 74.6667 200.983 74.0667 201.65 73.6C202.117 73.2667 202.85 72.8667 203.85 72.4C204.917 71.9333 206.117 71.4667 207.45 71C208.783 70.5333 210.183 70.1667 211.65 69.9C213.117 69.5667 214.517 69.4 215.85 69.4C217.85 69.4 219.283 69.8333 220.15 70.7C221.083 71.5 221.683 72.7667 221.95 74.5ZM216.25 113.5C215.917 115.033 215.65 116.8 215.45 118.8C215.25 120.733 215.083 122.467 214.95 124C217.283 123.667 220.017 123.1 223.15 122.3C226.283 121.5 229.083 120.567 231.55 119.5C232.75 118.967 233.85 118.9 234.85 119.3C235.85 119.633 236.483 120.333 236.75 121.4C237.083 122.667 235.983 123.867 233.45 125C230.05 126.533 226.783 127.833 223.65 128.9C220.583 129.967 217.45 130.7 214.25 131.1C213.117 131.233 212.15 131.167 211.35 130.9C210.55 130.633 209.917 130.233 209.45 129.7C208.983 129.167 208.65 128.533 208.45 127.8C208.317 127.067 208.25 126.3 208.25 125.5C208.25 123.167 208.45 120.833 208.85 118.5C209.25 116.1 209.783 113.8 210.45 111.6C210.783 110.467 211.15 109.767 211.55 109.5C211.95 109.167 212.517 109.033 213.25 109.1C213.917 109.167 214.45 109.4 214.85 109.8C215.317 110.2 215.65 110.633 215.85 111.1C216.117 111.567 216.25 112.033 216.25 112.5C216.317 112.967 216.317 113.3 216.25 113.5ZM305.846 112.5C305.246 112.5 304.713 112.3 304.246 111.9C303.779 111.433 303.346 110.9 302.946 110.3C302.546 109.633 302.179 108.933 301.846 108.2C301.579 107.467 301.379 106.767 301.246 106.1C300.313 101.967 299.813 98 299.746 94.2C298.213 96.5333 296.513 98.7667 294.646 100.9C292.779 102.967 290.913 104.833 289.046 106.5C287.246 108.167 285.479 109.567 283.746 110.7C282.079 111.833 280.679 112.6 279.546 113C277.413 113.733 275.613 113.767 274.146 113.1C272.746 112.367 271.779 110.967 271.246 108.9C270.446 105.967 269.879 102.833 269.546 99.5C269.279 96.1667 269.213 93.0667 269.346 90.2C269.413 89.2 269.646 88.5333 270.046 88.2C270.513 87.8 271.013 87.5667 271.546 87.5C272.413 87.3667 273.279 87.5667 274.146 88.1C275.013 88.6333 275.446 89.3667 275.446 90.3C275.446 91.5667 275.479 92.9667 275.546 94.5C275.679 95.9667 275.813 97.4333 275.946 98.9C276.146 100.367 276.346 101.767 276.546 103.1C276.813 104.433 277.113 105.6 277.446 106.6C279.179 105.8 281.079 104.667 283.146 103.2C285.279 101.733 287.379 100.067 289.446 98.2C291.513 96.2667 293.479 94.2333 295.346 92.1C297.213 89.9667 298.779 87.8667 300.046 85.8C300.113 85.1333 300.179 84.4667 300.246 83.8C300.313 83.0667 300.413 82.3333 300.546 81.6C300.679 80.4667 300.946 79.5 301.346 78.7C301.813 77.8333 302.546 77.5667 303.546 77.9C304.479 78.2333 305.313 78.9667 306.046 80.1C306.779 81.1667 307.013 82.3333 306.746 83.6C306.546 85.0667 306.379 86.5 306.246 87.9C306.113 89.2333 306.046 90.6 306.046 92C307.979 91.1333 310.246 90.2333 312.846 89.3C315.446 88.3 317.746 87.4333 319.746 86.7C319.813 85.5667 319.846 84.4333 319.846 83.3C319.846 82.1667 319.913 81.0333 320.046 79.9C320.113 79.1 320.279 78.2 320.546 77.2C320.813 76.2 321.279 75.7 321.946 75.7C322.813 75.7 323.546 75.9667 324.146 76.5C324.746 76.9667 325.179 77.5667 325.446 78.3C325.779 78.9667 325.979 79.6667 326.046 80.4C326.179 81.1333 326.246 81.7667 326.246 82.3C325.913 86.9667 325.913 91.8333 326.246 96.9C326.579 101.967 326.979 106.8 327.446 111.4C327.579 112.667 327.346 113.567 326.746 114.1C326.146 114.567 325.679 114.8 325.346 114.8C324.746 114.8 324.213 114.567 323.746 114.1C323.279 113.567 322.879 112.933 322.546 112.2C322.213 111.467 321.913 110.7 321.646 109.9C321.446 109.033 321.313 108.3 321.246 107.7C320.846 105.167 320.513 102.667 320.246 100.2C320.046 97.7333 319.913 95.2333 319.846 92.7C317.779 93.5667 315.579 94.5667 313.246 95.7C310.979 96.7667 308.613 97.9667 306.146 99.3C306.279 101.033 306.413 102.833 306.546 104.7C306.746 106.567 306.979 108.5 307.246 110.5C307.313 111.233 307.246 111.767 307.046 112.1C306.846 112.367 306.446 112.5 305.846 112.5ZM382.566 88.2C381.699 90.3333 380.832 92.4667 379.966 94.6C379.099 96.7333 378.232 98.8667 377.366 101C379.032 101.467 380.399 102.233 381.466 103.3C382.599 104.3 383.366 105.333 383.766 106.4C384.299 107.8 384.332 109.367 383.866 111.1C383.466 112.833 382.699 114.4 381.566 115.8C380.499 117.2 379.132 118.333 377.466 119.2C375.799 120 373.999 120.233 372.066 119.9C371.066 119.7 370.266 119.3 369.666 118.7C369.066 118.033 368.599 117.267 368.266 116.4C367.999 115.467 367.866 114.467 367.866 113.4C367.866 112.333 367.966 111.267 368.166 110.2C368.632 108.133 369.132 106.233 369.666 104.5C370.199 102.7 370.799 100.933 371.466 99.2C372.199 97.4667 372.966 95.7 373.766 93.9C374.566 92.1 375.432 90.1333 376.366 88C374.366 88.1333 372.366 88.5667 370.366 89.3C368.432 89.9667 366.766 90.6667 365.366 91.4C364.432 91.8667 363.466 91.9 362.466 91.5C361.466 91.0333 361.032 90.1333 361.166 88.8C361.099 87.7333 361.732 86.7667 363.066 85.9C364.466 85.0333 366.099 84.3333 367.966 83.8C369.899 83.2 371.866 82.8 373.866 82.6C375.866 82.4 377.532 82.4333 378.866 82.7C380.732 83.0333 381.899 83.7667 382.366 84.9C382.832 85.9667 382.899 87.0667 382.566 88.2ZM407.466 85C410.466 83.4667 413.399 82.6333 416.266 82.5C419.199 82.3667 421.799 82.6667 424.066 83.4C424.666 83.6 425.066 83.8667 425.266 84.2C425.532 84.5333 425.666 84.8667 425.666 85.2C425.732 85.4667 425.732 85.7333 425.666 86C425.599 86.2 425.566 86.3333 425.566 86.4C424.832 87.6 423.966 88.2 422.966 88.2C421.566 88.2 420.332 88.2333 419.266 88.3C418.266 88.3 417.332 88.3667 416.466 88.5C415.666 88.5667 414.866 88.7 414.066 88.9C413.332 89.1 412.499 89.3333 411.566 89.6C410.966 89.8 410.432 89.8667 409.966 89.8C409.566 89.6667 409.199 89.5333 408.866 89.4C408.532 89.2 408.232 89.0333 407.966 88.9C407.766 88.7667 407.566 88.7333 407.366 88.8C407.366 90.5333 407.432 92.3667 407.566 94.3C407.766 96.1667 407.966 97.8333 408.166 99.3C408.299 100.167 408.132 100.967 407.666 101.7C407.199 102.433 406.499 102.8 405.566 102.8C404.899 102.8 404.232 102.433 403.566 101.7C402.966 100.967 402.532 100.167 402.266 99.3C401.732 96.9667 401.399 94.6 401.266 92.2C401.132 89.7333 401.066 87.3667 401.066 85.1C401.132 82.7667 401.266 80.6 401.466 78.6C401.732 76.5333 401.999 74.8 402.266 73.4C402.466 72.2667 402.799 71.3667 403.266 70.7C403.732 70.0333 404.532 69.7333 405.666 69.8C406.399 69.8667 407.099 70.2667 407.766 71C408.432 71.6667 408.699 72.4667 408.566 73.4C407.832 77.4667 407.466 81.3333 407.466 85ZM414.466 116V129.2C414.466 129.733 414.199 130.267 413.666 130.8C413.132 131.333 412.532 131.6 411.866 131.6C411.132 131.6 410.566 131.333 410.166 130.8C409.766 130.267 409.432 129.7 409.166 129.1C408.832 128.3 408.566 127.3 408.366 126.1C408.166 124.833 407.999 123.567 407.866 122.3C407.799 120.967 407.766 119.8 407.766 118.8C407.766 117.733 407.766 117 407.766 116.6C406.766 116.733 405.399 117.267 403.666 118.2C401.999 119.133 400.399 120.167 398.866 121.3C397.732 122.033 396.699 122.333 395.766 122.2C394.832 122 394.099 121.533 393.566 120.8C393.032 120.067 392.899 119.267 393.166 118.4C393.499 117.467 394.132 116.667 395.066 116C396.732 114.867 398.632 113.733 400.766 112.6C402.899 111.467 405.232 110.767 407.766 110.5C410.232 110.5 411.966 111.067 412.966 112.2C413.966 113.333 414.466 114.6 414.466 116ZM380.366 74.5C380.566 74.9667 380.732 75.5 380.866 76.1C381.066 76.7 381.166 77.3 381.166 77.9C381.166 78.5 381.066 79.0333 380.866 79.5C380.666 79.9 380.299 80.1667 379.766 80.3C378.832 80.5667 378.099 80.4667 377.566 80C377.032 79.5333 376.566 78.9333 376.166 78.2C374.766 75.8 373.432 73.8 372.166 72.2C370.899 70.6 369.299 68.8 367.366 66.8C366.299 65.8667 365.632 64.9333 365.366 64C365.099 63 365.432 62.1333 366.366 61.4C367.232 60.8667 368.099 60.7667 368.966 61.1C369.832 61.4333 370.666 61.9 371.466 62.5C373.266 63.9 374.966 65.6667 376.566 67.8C378.166 69.9333 379.432 72.1667 380.366 74.5ZM373.566 113.7C374.632 113.5 375.599 113.033 376.466 112.3C377.399 111.567 377.999 110.767 378.266 109.9C378.599 108.767 378.499 107.867 377.966 107.2C377.499 106.467 376.799 105.833 375.866 105.3C375.399 106.7 374.966 108.1 374.566 109.5C374.232 110.9 373.899 112.3 373.566 113.7ZM485.781 68.3C486.515 68.2333 487.281 68.5667 488.081 69.3C488.948 70.0333 489.381 70.8 489.381 71.6L490.181 96.4C490.181 98 489.448 98.9 487.981 99.1C487.048 99.2333 486.215 98.9 485.481 98.1C484.815 97.2333 484.415 96.4333 484.281 95.7C484.015 93.7667 483.815 91.7333 483.681 89.6C483.548 87.4 483.415 85.1333 483.281 82.8C480.281 84.0667 477.048 85.5667 473.581 87.3C470.181 88.9667 466.781 90.6667 463.381 92.4C462.515 92.8667 461.748 92.9667 461.081 92.7C460.415 92.4333 459.915 92.0333 459.581 91.5C459.048 90.7 459.048 89.9 459.581 89.1C460.181 88.2333 460.681 87.6333 461.081 87.3C462.348 86.3667 463.881 85.4 465.681 84.4C467.481 83.4 469.381 82.4 471.381 81.4C473.381 80.4 475.415 79.4667 477.481 78.6C479.548 77.6667 481.481 76.8333 483.281 76.1C483.281 75.3667 483.281 74.6333 483.281 73.9C483.281 73.1667 483.315 72.4333 483.381 71.7C483.515 69.4333 484.315 68.3 485.781 68.3ZM487.781 105.6C489.915 105.733 491.348 106.367 492.081 107.5C492.881 108.633 493.115 110.167 492.781 112.1C492.448 114.233 491.781 116.433 490.781 118.7C489.781 120.9 488.848 122.867 487.981 124.6C490.115 124.333 491.948 124.1 493.481 123.9C495.015 123.7 496.381 123.5 497.581 123.3C498.915 123.167 499.815 123.333 500.281 123.8C500.815 124.267 501.081 124.7 501.081 125.1C501.081 126.567 500.115 127.667 498.181 128.4C496.315 129.067 494.281 129.7 492.081 130.3C489.948 130.833 487.781 131.267 485.581 131.6C484.715 131.733 483.848 131.7 482.981 131.5C482.115 131.3 481.415 130.933 480.881 130.4C480.348 129.867 480.015 129.2 479.881 128.4C479.815 127.533 480.081 126.567 480.681 125.5C481.215 124.5 481.781 123.367 482.381 122.1C483.048 120.833 483.648 119.567 484.181 118.3C484.781 117.033 485.248 115.833 485.581 114.7C485.981 113.567 486.215 112.7 486.281 112.1C486.281 111.767 485.915 111.667 485.181 111.8C484.515 111.933 483.715 112.167 482.781 112.5C481.848 112.767 480.948 113.1 480.081 113.5C479.215 113.833 478.581 114.033 478.181 114.1C477.115 114.367 476.181 114.267 475.381 113.8C474.581 113.333 474.081 112.8 473.881 112.2C473.681 111.6 473.681 111 473.881 110.4C474.148 109.733 474.748 109.167 475.681 108.7C477.415 107.833 479.348 107.067 481.481 106.4C483.681 105.733 485.781 105.467 487.781 105.6ZM452.581 78.5C452.581 79.1 452.248 80.3333 451.581 82.2C450.915 84.0667 450.081 86.1667 449.081 88.5C448.148 90.8333 447.081 93.2333 445.881 95.7C444.748 98.1667 443.681 100.3 442.681 102.1C442.148 103.033 441.415 103.733 440.481 104.2C439.548 104.667 438.715 104.5 437.981 103.7C436.848 102.433 436.615 100.967 437.281 99.3C438.615 96.4333 439.748 94 440.681 92C441.615 89.9333 442.381 88.2 442.981 86.8C443.581 85.4 444.048 84.2333 444.381 83.3C444.781 82.3 445.115 81.4 445.381 80.6C444.381 80.8 443.181 81.2 441.781 81.8C440.448 82.4 439.115 82.9667 437.781 83.5C436.848 83.9 435.948 83.9333 435.081 83.6C434.215 83.2667 433.615 82.6333 433.281 81.7C432.748 80.0333 433.515 78.7333 435.581 77.8C437.248 77 438.981 76.2667 440.781 75.6C442.648 74.9333 444.448 74.4 446.181 74C448.181 73.5333 449.715 73.8333 450.781 74.9C451.915 75.9 452.515 77.1 452.581 78.5ZM455.281 121.7C454.615 121.767 454.015 121.4 453.481 120.6C452.948 119.733 452.548 118.9 452.281 118.1C451.681 116.3 451.181 114.433 450.781 112.5C450.381 110.5 450.048 108.533 449.781 106.6C449.515 104.6 449.315 102.7 449.181 100.9C449.048 99.0333 448.948 97.3667 448.881 95.9C448.881 95.1 448.915 94.4667 448.981 94C449.115 93.4667 449.681 93.1 450.681 92.9C451.215 92.7667 451.948 92.9 452.881 93.3C453.815 93.6333 454.315 94.2667 454.381 95.2C454.781 98.8667 455.215 102.533 455.681 106.2C456.215 109.8 456.815 113.6 457.481 117.6C457.681 118.933 457.548 119.933 457.081 120.6C456.615 121.267 456.015 121.633 455.281 121.7ZM470.881 129.3C470.215 129.433 469.548 129.167 468.881 128.5C468.281 127.833 467.915 127.1 467.781 126.3C467.115 122.633 466.648 119.233 466.381 116.1C466.181 112.967 466.148 109.9 466.281 106.9C466.281 106.5 466.348 106.033 466.481 105.5C466.681 104.967 466.915 104.467 467.181 104C467.448 103.467 467.748 103.033 468.081 102.7C468.481 102.3 468.948 102.067 469.481 102C470.015 101.867 470.581 102.033 471.181 102.5C471.848 102.967 472.148 104.067 472.081 105.8C472.215 109.2 472.348 112.5 472.481 115.7C472.615 118.9 472.915 122.4 473.381 126.2C473.515 127.133 473.315 127.867 472.781 128.4C472.248 128.867 471.615 129.167 470.881 129.3Z" fill="black"/>
</svg>
