<svg width="179" height="63" viewBox="0 0 179 63" fill="none" xmlns="http://www.w3.org/2000/svg">
<path d="M22.4639 22.4188C22.6519 16.8869 23.228 11.3755 24.1892 5.91959C24.2358 6.24922 24.2722 6.56567 24.3077 6.84835C24.9724 12.124 23.9955 17.3476 22.4639 22.4188ZM16.0212 25.5433C16.088 25.4534 16.1346 25.3706 16.1515 25.299C16.5696 23.5481 16.9874 21.7972 17.4052 20.0463C17.3269 22.0011 17.2486 23.9556 17.1703 25.9104C17.1542 26.3064 18.6288 25.651 19.4982 24.956C19.4685 26.0558 19.454 27.1561 19.4546 28.2568C18.3221 27.3729 17.1668 26.4717 16.0212 25.5433ZM6.03167 14.8748C6.36431 14.6731 6.69749 14.4313 6.96294 14.1874C7.62593 15.5461 8.28931 16.905 8.95267 18.2636C9.06639 18.4934 9.78477 18.2345 10.482 17.8191C11.1143 19.1584 11.6369 20.5494 12.0455 21.9917C12.1242 22.2688 12.7051 22.0082 13.3221 21.6153C13.2828 22.1389 13.2536 22.6633 13.2311 23.1882C10.4389 20.7137 7.87207 18.0014 6.03167 14.8748ZM10.4284 12.2013C10.2878 12.2687 10.1391 12.354 9.98831 12.4501C9.60398 11.6625 9.22005 10.8754 8.83578 10.0885C9.45224 10.7342 9.9717 11.4467 10.4284 12.2013ZM20.9413 2.78677C21.2955 2.24495 21.0608 2.32524 21.7817 2.38031C22.353 2.42398 22.7819 2.65802 23.1125 3.00245C22.6089 3.31618 22.0202 3.76316 21.8872 4.27763C21.4855 5.83008 21.0993 7.3861 20.7236 8.9446C20.7684 7.82123 20.814 6.69782 20.8588 5.57446C20.8708 5.277 20.1516 5.53486 19.4203 5.95702C19.696 5.26245 19.9941 4.57533 20.3254 3.90691C20.5144 3.52599 20.7083 3.1432 20.9413 2.78677ZM25.8032 0.797766C24.4045 -0.329651 22.4246 0.436559 21.0883 1.2643C19.2149 2.42497 18.0592 4.0644 17.167 6.04506C16.1302 8.3465 15.3343 10.7338 14.7768 13.1763C13.6376 10.4543 12.2185 7.89595 9.54964 6.36823C7.93542 5.44356 5.97165 5.05888 4.18489 5.72197C2.50399 6.34619 0.559246 7.75527 0.611634 9.71931C0.727107 14.0505 3.78404 18.2979 6.57542 21.3721C10.0791 25.2305 14.2737 28.4348 18.353 31.6563C18.6987 31.9296 19.4655 31.5312 20.1281 31.0188C20.9486 30.6683 22.2806 29.6551 22.4278 29.2602C24.2338 24.4198 26.0277 19.524 26.9145 14.4179C27.3341 12.0017 27.5443 9.54206 27.4203 7.09033C27.3292 5.28237 27.352 2.04579 25.8032 0.797766Z" fill="#FF0000"/>
<path d="M48.493 25.95C48.493 26.3167 48.393 26.65 48.193 26.95C47.993 27.2167 47.6096 27.3167 47.043 27.25C46.5096 27.2167 46.1096 26.95 45.843 26.45C45.6096 25.95 45.4596 25.3333 45.393 24.6C45.3263 23.8333 45.2596 23.0667 45.193 22.3C45.1596 21.5 45.1596 20.7 45.193 19.9C43.9263 20.4 42.6096 20.8833 41.243 21.35C39.8763 21.7833 38.5596 22.0833 37.293 22.25C37.293 22.6833 37.293 23.1 37.293 23.5C37.3263 23.9 37.3596 24.3 37.393 24.7C37.4596 25.6 37.4096 26.3167 37.243 26.85C37.1096 27.35 36.793 27.6 36.293 27.6C35.9263 27.6 35.5763 27.3833 35.243 26.95C34.943 26.5167 34.7096 25.9833 34.543 25.35C34.243 23.95 34.0596 22.3333 33.993 20.5C33.9263 18.6333 34.0263 16.8333 34.293 15.1C34.393 14.3333 34.643 13.6833 35.043 13.15C35.443 12.6167 35.9263 12.3667 36.493 12.4C36.7596 12.4 36.9763 12.5167 37.143 12.75C37.3096 12.9833 37.4263 13.2667 37.493 13.6C37.593 13.9 37.643 14.2333 37.643 14.6C37.6763 14.9333 37.6763 15.2333 37.643 15.5C37.5763 16.0667 37.5096 16.6333 37.443 17.2C37.3763 17.7667 37.3263 18.35 37.293 18.95C38.6263 18.7833 39.993 18.5 41.393 18.1C42.793 17.7 44.093 17.2667 45.293 16.8C45.3596 16.2333 45.4263 15.7 45.493 15.2C45.5596 14.6667 45.6263 14.1333 45.693 13.6C45.9596 12.0667 46.643 11.2833 47.743 11.25C48.043 11.25 48.2596 11.3333 48.393 11.5C48.5263 11.6667 48.6096 11.8833 48.643 12.15C48.7096 12.3833 48.7263 12.65 48.693 12.95C48.6596 13.25 48.643 13.55 48.643 13.85C48.5763 15.0167 48.5263 16.05 48.493 16.95C48.4596 17.85 48.443 18.75 48.443 19.65C48.443 20.5167 48.443 21.45 48.443 22.45C48.443 23.45 48.4596 24.6167 48.493 25.95ZM44.643 31.9C44.643 31.5 44.793 31.15 45.093 30.85C45.393 30.5167 45.8763 30.3667 46.543 30.4C47.1096 30.4333 47.493 30.6833 47.693 31.15C47.9263 31.5833 48.0263 31.9333 47.993 32.2C47.9263 34.1667 47.8263 36.1 47.693 38C47.593 39.8667 47.4096 41.6333 47.143 43.3C47.0096 44.0333 46.843 44.7833 46.643 45.55C46.443 46.2833 46.2096 46.9333 45.943 47.5C45.6763 48.1 45.343 48.5833 44.943 48.95C44.543 49.3167 44.0763 49.4833 43.543 49.45C42.843 49.4167 42.243 49.1833 41.743 48.75C41.243 48.3167 40.8263 47.8 40.493 47.2C40.193 46.6 39.9763 45.95 39.843 45.25C39.743 44.55 39.7096 43.9 39.743 43.3C39.7763 42.5667 39.9263 41.9 40.193 41.3C40.493 40.6667 40.8596 40.1167 41.293 39.65C41.7596 39.15 42.2596 38.75 42.793 38.45C43.3596 38.1167 43.893 37.8667 44.393 37.7C44.4596 36.7333 44.493 35.7667 44.493 34.8C44.5263 33.8333 44.5763 32.8667 44.643 31.9ZM25.493 20C26.093 20 26.6096 20.1667 27.043 20.5C27.4763 20.8 27.8096 21.2 28.043 21.7C28.3096 22.2 28.4596 22.7667 28.493 23.4C28.5596 24.0333 28.5263 24.6667 28.393 25.3C28.293 25.6667 28.0763 26.2 27.743 26.9C27.443 27.5667 27.0263 28.2333 26.493 28.9C25.9596 29.5667 25.343 30.15 24.643 30.65C23.943 31.15 23.1596 31.4 22.293 31.4C21.793 31.4 21.3263 31.2833 20.893 31.05C20.493 30.7833 20.1596 30.4667 19.893 30.1C19.6263 29.7 19.4096 29.2667 19.243 28.8C19.1096 28.3333 19.043 27.8667 19.043 27.4C19.043 26 19.3263 24.8167 19.893 23.85C20.4596 22.85 21.0263 22.05 21.593 21.45C21.8596 21.15 22.2263 20.9 22.693 20.7C23.1596 20.5 23.6096 20.5333 24.043 20.8C24.1763 20.4667 24.3763 20.25 24.643 20.15C24.9096 20.05 25.193 20 25.493 20ZM38.343 32.85C38.0763 34.6833 37.9096 36.4667 37.843 38.2C37.8096 39.9 37.8096 41.6333 37.843 43.4C37.843 43.9667 37.7596 44.4833 37.593 44.95C37.4263 45.3833 37.0763 45.6 36.543 45.6C36.0096 45.6 35.6096 45.3333 35.343 44.8C35.1096 44.2333 34.9596 43.65 34.893 43.05C34.693 41.25 34.6096 39.35 34.643 37.35C34.7096 35.35 34.8763 33.5833 35.143 32.05C35.2096 31.65 35.393 31.2833 35.693 30.95C35.993 30.5833 36.3763 30.4333 36.843 30.5C37.343 30.5667 37.743 30.8 38.043 31.2C38.343 31.6 38.443 32.15 38.343 32.85ZM24.393 22.9C24.1596 23.1667 23.893 23.5333 23.593 24C23.293 24.4667 23.0263 24.9667 22.793 25.5C22.5596 26 22.4096 26.5167 22.343 27.05C22.2763 27.55 22.3596 27.9667 22.593 28.3C22.9596 28.0333 23.3263 27.7 23.693 27.3C24.093 26.8667 24.4596 26.4167 24.793 25.95C25.1263 25.4833 25.4096 25.0333 25.643 24.6C25.8763 24.1333 26.0263 23.7333 26.093 23.4C26.1263 23.1333 26.0596 22.8833 25.893 22.65C25.7263 22.4167 25.4763 22.2667 25.143 22.2C25.0096 22.2 24.8763 22.1667 24.743 22.1C24.6763 22.4 24.5596 22.6667 24.393 22.9ZM41.693 44C41.6263 44.4 41.6763 44.8333 41.843 45.3C42.043 45.7333 42.3596 45.9667 42.793 46C43.0596 46.0333 43.2763 45.85 43.443 45.45C43.6096 45.05 43.7263 44.6 43.793 44.1C43.8596 43.6333 43.9096 43.1667 43.943 42.7C44.0096 42.2 44.0763 41.7167 44.143 41.25C43.6096 41.45 43.093 41.7833 42.593 42.25C42.1263 42.6833 41.8263 43.2667 41.693 44ZM82.291 23.3C82.1243 23.5667 81.7577 23.7833 81.191 23.95C80.6577 24.0833 80.041 24.1833 79.341 24.25C78.641 24.3167 77.9243 24.3667 77.191 24.4C76.491 24.4 75.9077 24.3833 75.441 24.35C75.8743 24.6833 76.0577 25.0667 75.991 25.5C75.791 27 75.641 28.5833 75.541 30.25C75.4743 31.9167 75.5243 33.5 75.691 35C76.791 34.7 78.2077 34.1667 79.941 33.4C81.6743 32.6 83.4243 31.45 85.191 29.95C85.8577 29.35 86.341 29.15 86.641 29.35C86.8743 29.5167 86.9243 29.7833 86.791 30.15C86.691 30.4833 86.541 30.8167 86.341 31.15C85.941 31.85 85.391 32.5833 84.691 33.35C83.991 34.0833 83.191 34.8 82.291 35.5C81.4243 36.1667 80.4743 36.8 79.441 37.4C78.441 37.9667 77.4077 38.4333 76.341 38.8C75.7743 38.9667 75.2577 38.9833 74.791 38.85C74.3577 38.7167 73.9743 38.5 73.641 38.2C73.341 37.8667 73.0743 37.4833 72.841 37.05C72.641 36.5833 72.5243 36.1 72.491 35.6C72.291 33.7 72.241 31.7667 72.341 29.8C72.441 27.8 72.6243 25.95 72.891 24.25C72.191 24.1833 71.641 23.9833 71.241 23.65C70.8743 23.2833 70.691 22.8833 70.691 22.45C70.691 22.3167 70.7243 22.1833 70.791 22.05C70.891 21.8833 71.1243 21.75 71.491 21.65C71.7243 21.5833 72.2077 21.5 72.941 21.4C73.6743 21.3 74.5077 21.2333 75.441 21.2C76.3743 21.1667 77.3243 21.1667 78.291 21.2C79.291 21.2333 80.1577 21.35 80.891 21.55C81.4577 21.7167 81.8743 21.9833 82.141 22.35C82.4077 22.6833 82.4577 23 82.291 23.3ZM93.041 36.65C93.041 37.2167 92.841 37.6 92.441 37.8C92.041 38 91.6243 38.0667 91.191 38C90.9243 37.9333 90.641 37.7667 90.341 37.5C90.041 37.2333 89.8577 36.85 89.791 36.35C89.691 34.7167 89.6077 33.05 89.541 31.35C89.5077 29.65 89.491 28 89.491 26.4C89.491 24.8 89.5077 23.2833 89.541 21.85C89.5744 20.3833 89.6244 19.0833 89.691 17.95C89.691 17.65 89.8077 17.3667 90.041 17.1C90.3077 16.8333 90.6244 16.7 90.991 16.7C91.6244 16.7 92.1077 16.9667 92.441 17.5C92.8077 18.0333 92.991 18.5333 92.991 19C92.9243 20.0667 92.8744 21.15 92.841 22.25C92.8077 23.35 92.7743 24.4667 92.741 25.6C93.9744 25.1667 95.3244 24.8667 96.791 24.7C98.2577 24.5 99.9577 24.4833 101.891 24.65C102.424 24.7167 102.924 24.8833 103.391 25.15C103.891 25.4167 104.141 25.75 104.141 26.15C103.974 26.7167 103.658 27.0833 103.191 27.25C102.724 27.4167 102.224 27.4833 101.691 27.45C101.358 27.45 100.924 27.4667 100.391 27.5C99.891 27.5333 99.341 27.6 98.741 27.7C98.141 27.7667 97.5077 27.8667 96.841 28C96.1744 28.1333 95.541 28.2667 94.941 28.4C94.5077 28.5 94.1077 28.5 93.741 28.4C93.3744 28.3 93.041 28.15 92.741 27.95C92.741 31.0167 92.841 33.9167 93.041 36.65ZM128.175 27.8C128.142 27.9667 128.009 28.25 127.775 28.65C127.542 29.0167 127.175 29.2333 126.675 29.3C126.242 29.3667 125.809 29.45 125.375 29.55C124.975 29.6167 124.542 29.6833 124.075 29.75C123.709 31.25 123.425 32.7833 123.225 34.35C123.025 35.9167 122.842 37.4667 122.675 39C122.609 39.6333 122.425 40.1667 122.125 40.6C121.859 41.0333 121.459 41.2167 120.925 41.15C120.359 41.0833 119.992 40.8333 119.825 40.4C119.692 39.9667 119.625 39.5167 119.625 39.05C119.625 38.45 119.642 37.7833 119.675 37.05C119.742 36.2833 119.825 35.5167 119.925 34.75C120.025 33.95 120.125 33.1667 120.225 32.4C120.359 31.6333 120.509 30.95 120.675 30.35C118.842 30.6833 116.992 31.0333 115.125 31.4C113.259 31.7667 111.525 32.1333 109.925 32.5C109.159 32.6667 108.492 32.6667 107.925 32.5C107.392 32.3333 107.075 32 106.975 31.5C106.909 31.0667 107.125 30.6667 107.625 30.3C108.125 29.9333 108.675 29.6667 109.275 29.5C110.475 29.2333 111.775 28.95 113.175 28.65C114.575 28.3167 115.992 28.0167 117.425 27.75C118.892 27.45 120.342 27.2167 121.775 27.05C123.242 26.85 124.642 26.7333 125.975 26.7C126.675 26.7 127.225 26.8333 127.625 27.1C128.025 27.3333 128.209 27.5667 128.175 27.8ZM120.575 13.4C120.942 13.4667 121.259 13.6667 121.525 14C121.825 14.3 122.042 14.6833 122.175 15.15C122.309 15.5833 122.359 16.0667 122.325 16.6C122.325 17.1333 122.209 17.6667 121.975 18.2C121.775 18.6333 121.492 19.1 121.125 19.6C120.792 20.1 120.392 20.5833 119.925 21.05C119.492 21.5167 119.009 21.9333 118.475 22.3C117.975 22.6667 117.459 22.9167 116.925 23.05C116.492 23.1833 116.042 23.2333 115.575 23.2C115.142 23.1667 114.725 23.05 114.325 22.85C113.925 22.65 113.592 22.3833 113.325 22.05C113.059 21.7167 112.875 21.3167 112.775 20.85C112.709 20.4167 112.725 19.85 112.825 19.15C112.959 18.45 113.142 17.7333 113.375 17C113.642 16.2333 113.959 15.5 114.325 14.8C114.692 14.1 115.075 13.5167 115.475 13.05C115.742 12.7833 116.025 12.55 116.325 12.35C116.625 12.1167 116.992 12 117.425 12C117.792 12 118.059 12.1667 118.225 12.5C118.425 12.8333 118.525 13.1833 118.525 13.55C118.925 13.4167 119.275 13.35 119.575 13.35C119.909 13.3167 120.242 13.3333 120.575 13.4ZM116.475 38.8C116.409 39.1333 116.342 39.5333 116.275 40C116.209 40.4667 116.142 40.95 116.075 41.45C116.042 41.9167 116.009 42.3833 115.975 42.85C115.942 43.3167 115.925 43.7333 115.925 44.1C117.092 43.9 118.175 43.6833 119.175 43.45C120.175 43.2167 121.159 42.9667 122.125 42.7C123.125 42.4333 124.142 42.1333 125.175 41.8C126.209 41.4333 127.359 41.0333 128.625 40.6C129.192 40.4 129.592 40.3333 129.825 40.4C130.059 40.4667 130.192 40.6833 130.225 41.05C130.292 41.6833 130.092 42.1833 129.625 42.55C129.192 42.8833 128.709 43.1833 128.175 43.45C127.475 43.8167 126.642 44.2 125.675 44.6C124.709 45 123.675 45.3833 122.575 45.75C121.509 46.1167 120.392 46.4333 119.225 46.7C118.092 46.9667 116.992 47.15 115.925 47.25C115.259 47.3167 114.725 47.2667 114.325 47.1C113.925 46.9333 113.609 46.7167 113.375 46.45C113.142 46.15 112.975 45.85 112.875 45.55C112.775 45.25 112.725 45 112.725 44.8C112.659 44.2333 112.659 43.45 112.725 42.45C112.792 41.45 112.909 40.55 113.075 39.75C113.209 39.2833 113.442 38.7667 113.775 38.2C114.109 37.6333 114.542 37.3 115.075 37.2C116.209 37 116.675 37.5333 116.475 38.8ZM116.375 20C116.575 20 116.825 19.8833 117.125 19.65C117.425 19.3833 117.725 19.0833 118.025 18.75C118.359 18.3833 118.642 18.0167 118.875 17.65C119.142 17.2833 119.309 16.95 119.375 16.65C119.542 16.3833 119.559 16.1667 119.425 16C119.292 15.8 119.109 15.6167 118.875 15.45C118.609 15.2833 118.292 15.1167 117.925 14.95C117.725 15.25 117.525 15.6667 117.325 16.2C117.159 16.7 117.009 17.2 116.875 17.7C116.742 18.2 116.625 18.6667 116.525 19.1C116.459 19.5333 116.409 19.8333 116.375 20ZM140.235 19.7C139.968 20.2 139.635 20.7667 139.235 21.4C138.868 22.0333 138.485 22.6833 138.085 23.35C138.385 23.2833 138.735 23.2333 139.135 23.2C139.568 23.1333 139.968 23.0833 140.335 23.05C141.302 22.9833 141.902 23.2333 142.135 23.8C142.368 24.3333 142.302 24.95 141.935 25.65C141.535 26.4167 141.052 27.2167 140.485 28.05C139.952 28.8833 139.485 29.85 139.085 30.95C139.552 30.8833 140.052 30.8333 140.585 30.8C141.118 30.7333 141.618 30.7167 142.085 30.75C142.985 30.8167 143.652 31.1667 144.085 31.8C144.552 32.4 144.668 33.1667 144.435 34.1C144.135 35.2667 143.652 36.35 142.985 37.35C142.352 38.3167 141.652 39.1833 140.885 39.95C142.018 39.8833 143.052 39.8167 143.985 39.75C144.918 39.6833 145.802 39.6 146.635 39.5C147.502 39.4 148.368 39.2833 149.235 39.15C150.102 39.0167 151.035 38.8667 152.035 38.7C152.702 38.6333 153.135 38.6833 153.335 38.85C153.535 38.9833 153.685 39.2167 153.785 39.55C153.785 40.1167 153.635 40.5667 153.335 40.9C153.035 41.2 152.568 41.4333 151.935 41.6C147.502 42.8333 142.968 43.4 138.335 43.3C137.502 43.2667 136.902 43.0667 136.535 42.7C136.168 42.3 136.018 41.9 136.085 41.5C136.085 41.2333 136.152 40.9833 136.285 40.75C136.452 40.5167 136.668 40.3 136.935 40.1C137.302 39.8 137.718 39.4167 138.185 38.95C138.652 38.4833 139.085 37.9667 139.485 37.4C139.918 36.8333 140.302 36.25 140.635 35.65C141.002 35.0167 141.252 34.4 141.385 33.8C140.885 33.8667 140.185 33.9833 139.285 34.15C138.418 34.3167 137.602 34.2667 136.835 34C136.468 33.8333 136.185 33.5333 135.985 33.1C135.818 32.6667 135.785 32.1667 135.885 31.6C136.052 30.8 136.402 29.8833 136.935 28.85C137.502 27.8167 138.102 26.9 138.735 26.1C138.335 26.1667 137.852 26.2667 137.285 26.4C136.718 26.5333 136.218 26.6667 135.785 26.8C135.285 26.9 134.852 26.85 134.485 26.65C134.152 26.45 133.902 26.2 133.735 25.9C133.402 25.2 133.452 24.55 133.885 23.95C134.652 22.8833 135.302 21.9333 135.835 21.1C136.368 20.2667 136.818 19.45 137.185 18.65C136.752 18.4833 136.185 18.4 135.485 18.4C134.785 18.3667 134.152 18.35 133.585 18.35C133.318 18.35 133.035 18.2333 132.735 18C132.468 17.7333 132.318 17.45 132.285 17.15C132.285 16.7833 132.418 16.45 132.685 16.15C132.952 15.85 133.318 15.6667 133.785 15.6C134.452 15.5333 135.185 15.5333 135.985 15.6C136.818 15.6667 137.618 15.85 138.385 16.15C139.352 16.5167 139.985 17.0167 140.285 17.65C140.618 18.2833 140.602 18.9667 140.235 19.7ZM156.22 20.7C156.153 20.4667 156.186 20.1833 156.32 19.85C156.486 19.4833 156.97 19.2167 157.77 19.05C159.936 18.5833 162.003 18.2667 163.97 18.1C165.936 17.9333 168.003 17.8833 170.17 17.95C170.903 18.0167 171.403 18.2 171.67 18.5C171.97 18.8 172.12 19.05 172.12 19.25C172.12 19.4167 172.036 19.6333 171.87 19.9C171.736 20.1333 171.403 20.3 170.87 20.4C169.503 20.6 168.203 20.8 166.97 21C165.77 21.1667 164.586 21.35 163.42 21.55C163.386 22.8167 163.37 24.1333 163.37 25.5C163.403 26.8667 163.453 28.2333 163.52 29.6C163.853 29.3667 164.32 29.05 164.92 28.65C165.52 28.25 166.17 27.85 166.87 27.45C167.603 27.05 168.353 26.6667 169.12 26.3C169.886 25.9333 170.603 25.65 171.27 25.45C171.37 25.4167 171.553 25.3833 171.82 25.35C172.086 25.2833 172.37 25.25 172.67 25.25C172.97 25.2167 173.236 25.2333 173.47 25.3C173.736 25.3333 173.903 25.4167 173.97 25.55C174.103 25.7833 174.103 26.1 173.97 26.5C173.87 26.8667 173.536 27.2167 172.97 27.55C171.436 28.3833 169.936 29.3 168.47 30.3C167.036 31.2667 165.603 32.2833 164.17 33.35C163.77 33.65 163.353 33.8 162.92 33.8C162.186 33.8 161.57 33.5167 161.07 32.95C160.603 32.35 160.32 31.6167 160.22 30.75C160.053 29.25 159.953 27.8333 159.92 26.5C159.886 25.1667 159.92 23.7 160.02 22.1C159.886 22.1 159.77 22.1167 159.67 22.15C159.57 22.1833 159.47 22.2 159.37 22.2C158.603 22.3333 157.903 22.2167 157.27 21.85C156.636 21.45 156.286 21.0667 156.22 20.7ZM176.22 36.1C175.42 36.4667 174.52 36.8333 173.52 37.2C172.52 37.5667 171.503 37.9167 170.47 38.25C169.47 38.55 168.486 38.8333 167.52 39.1C166.553 39.3667 165.72 39.55 165.02 39.65C164.153 39.8167 163.436 39.75 162.87 39.45C162.303 39.1167 161.986 38.75 161.92 38.35C161.753 37.65 162.253 37.15 163.42 36.85C165.72 36.2833 167.886 35.7 169.92 35.1C171.986 34.5 174.12 33.7667 176.32 32.9C176.82 32.7 177.253 32.6 177.62 32.6C177.986 32.6 178.22 32.8667 178.32 33.4C178.453 34.0333 178.286 34.5833 177.82 35.05C177.386 35.4833 176.853 35.8333 176.22 36.1Z" fill="black"/>
</svg>
