<svg width="182" height="63" viewBox="0 0 182 63" fill="none" xmlns="http://www.w3.org/2000/svg">
<path d="M22.4638 22.4188C22.6518 16.8869 23.2279 11.3755 24.1891 5.91959C24.2357 6.24922 24.2721 6.56567 24.3076 6.84835C24.9722 12.124 23.9954 17.3476 22.4638 22.4188ZM16.0211 25.5433C16.0878 25.4534 16.1345 25.3706 16.1514 25.299C16.5695 23.5481 16.9873 21.7972 17.4051 20.0463C17.3268 22.0011 17.2484 23.9556 17.1701 25.9104C17.1541 26.3064 18.6287 25.651 19.4981 24.956C19.4684 26.0558 19.4539 27.1561 19.4545 28.2568C18.322 27.3729 17.1667 26.4717 16.0211 25.5433ZM6.03155 14.8748C6.36419 14.6731 6.69736 14.4313 6.96281 14.1874C7.62581 15.5461 8.28919 16.905 8.95255 18.2636C9.06627 18.4934 9.78465 18.2345 10.4818 17.8191C11.1142 19.1584 11.6368 20.5494 12.0454 21.9917C12.1241 22.2688 12.705 22.0082 13.322 21.6153C13.2827 22.1389 13.2535 22.6633 13.2309 23.1882C10.4388 20.7137 7.87195 18.0014 6.03155 14.8748ZM10.4283 12.2013C10.2877 12.2687 10.139 12.354 9.98818 12.4501C9.60386 11.6625 9.21993 10.8754 8.83566 10.0885C9.45211 10.7342 9.97158 11.4467 10.4283 12.2013ZM20.9412 2.78677C21.2954 2.24495 21.0606 2.32524 21.7816 2.38031C22.3528 2.42398 22.7818 2.65802 23.1124 3.00245C22.6088 3.31618 22.0201 3.76316 21.8871 4.27763C21.4854 5.83008 21.0992 7.3861 20.7235 8.9446C20.7683 7.82123 20.8139 6.69782 20.8587 5.57446C20.8707 5.277 20.1515 5.53486 19.4201 5.95702C19.6959 5.26245 19.994 4.57533 20.3253 3.90691C20.5143 3.52599 20.7082 3.1432 20.9412 2.78677ZM25.8031 0.797766C24.4044 -0.329651 22.4245 0.436559 21.0882 1.2643C19.2147 2.42497 18.059 4.0644 17.1668 6.04506C16.1301 8.3465 15.3341 10.7338 14.7766 13.1763C13.6375 10.4543 12.2184 7.89595 9.54951 6.36823C7.9353 5.44356 5.97153 5.05888 4.18477 5.72197C2.50386 6.34619 0.559124 7.75527 0.611512 9.71931C0.726985 14.0505 3.78392 18.2979 6.5753 21.3721C10.079 25.2305 14.2736 28.4348 18.3529 31.6563C18.6985 31.9296 19.4654 31.5312 20.128 31.0188C20.9484 30.6683 22.2805 29.6551 22.4277 29.2602C24.2337 24.4198 26.0275 19.524 26.9143 14.4179C27.334 12.0017 27.5442 9.54206 27.4202 7.09033C27.3291 5.28237 27.3519 2.04579 25.8031 0.797766Z" fill="#FF0000"/>
<path d="M23.8123 27.7C23.9123 28.4 24.029 29.1833 24.1623 30.05C24.329 30.8833 24.5123 31.75 24.7123 32.65C24.9123 33.55 25.129 34.4333 25.3623 35.3C25.629 36.1667 25.9123 36.9333 26.2123 37.6C26.379 37.9667 26.3623 38.35 26.1623 38.75C25.9956 39.15 25.629 39.3333 25.0623 39.3C24.7956 39.3 24.4956 39.1333 24.1623 38.8C23.829 38.4333 23.5623 38.0833 23.3623 37.75C23.0623 37.25 22.7623 36.5833 22.4623 35.75C22.1956 34.8833 21.929 33.9667 21.6623 33C21.429 32 21.1956 31.0167 20.9623 30.05C20.7623 29.05 20.5956 28.1667 20.4623 27.4C20.429 27.2667 20.4123 27.0833 20.4123 26.85C19.879 27.65 19.379 28.5 18.9123 29.4C18.4456 30.3 18.0123 31.2833 17.6123 32.35C17.5456 32.5833 17.379 32.75 17.1123 32.85C16.879 32.95 16.5623 32.8667 16.1623 32.6C15.9956 32.4667 15.8456 32.3333 15.7123 32.2C15.4123 31.9 15.2456 31.6 15.2123 31.3C15.2123 30.5 15.4456 29.55 15.9123 28.45C16.4123 27.3167 17.0456 26.1667 17.8123 25C18.579 23.8 19.4623 22.6667 20.4623 21.6C21.4623 20.5 22.4623 19.5833 23.4623 18.85C23.8956 18.5167 24.2456 18.4333 24.5123 18.6C24.8123 18.7667 24.9956 18.95 25.0623 19.15C25.129 19.3833 25.1456 19.6833 25.1123 20.05C25.1123 20.4167 24.979 20.7833 24.7123 21.15C24.0456 21.95 23.3956 22.75 22.7623 23.55C22.1623 24.35 21.5623 25.1833 20.9623 26.05C21.029 26.05 21.0956 26.05 21.1623 26.05C21.229 26.0167 21.2956 26 21.3623 26C21.8956 26 22.4123 26.15 22.9123 26.45C23.4456 26.75 23.7456 27.1667 23.8123 27.7ZM36.5123 18.75C36.6123 18.2833 36.779 17.8833 37.0123 17.55C37.279 17.1833 37.6456 17.0333 38.1123 17.1C38.5123 17.1667 38.8623 17.3833 39.1623 17.75C39.4623 18.1167 39.5956 18.4833 39.5623 18.85C39.3623 21.05 39.2456 23.25 39.2123 25.45C39.2123 27.6167 39.2623 29.95 39.3623 32.45C39.3623 32.7167 39.2956 32.9833 39.1623 33.25C39.0623 33.4833 38.929 33.7 38.7623 33.9C38.5956 34.1 38.4123 34.2667 38.2123 34.4C38.0456 34.5 37.9123 34.5333 37.8123 34.5C37.4456 34.4 37.1623 34.1167 36.9623 33.65C36.7623 33.15 36.629 32.65 36.5623 32.15C36.4623 31.35 36.379 30.4333 36.3123 29.4C36.2456 28.3333 36.1956 27.2333 36.1623 26.1C34.9956 26.5333 33.8623 26.9833 32.7623 27.45C31.6623 27.9167 30.6456 28.35 29.7123 28.75C29.2123 28.95 28.679 28.9667 28.1123 28.8C27.579 28.6 27.329 28.3 27.3623 27.9C27.429 27.2333 28.0456 26.6 29.2123 26C30.1456 25.5333 31.1956 25.0667 32.3623 24.6C33.5623 24.1 34.8123 23.6 36.1123 23.1C36.1456 22.3 36.179 21.5333 36.2123 20.8C36.279 20.0333 36.379 19.35 36.5123 18.75ZM37.7123 38.45C37.979 38.85 38.1456 39.3833 38.2123 40.05C38.279 40.6833 38.229 41.3333 38.0623 42C37.9623 42.5667 37.7456 43.1333 37.4123 43.7C37.079 44.2333 36.6623 44.7167 36.1623 45.15C35.6956 45.5833 35.1456 45.9333 34.5123 46.2C33.9123 46.4667 33.279 46.6 32.6123 46.6C32.1123 46.6 31.6956 46.5 31.3623 46.3C31.0623 46.0667 30.8123 45.8 30.6123 45.5C30.4123 45.1667 30.2623 44.8167 30.1623 44.45C30.0623 44.05 30.0123 43.6667 30.0123 43.3C29.979 42.4 30.1456 41.4167 30.5123 40.35C30.9123 39.25 31.4456 38.3333 32.1123 37.6C32.5456 37.1333 33.029 36.7667 33.5623 36.5C34.129 36.2 34.5956 36.0833 34.9623 36.15C35.1623 36.2167 35.3456 36.3833 35.5123 36.65C35.679 36.9167 35.6623 37.2833 35.4623 37.75C35.8623 37.6833 36.2623 37.7 36.6623 37.8C37.0956 37.8667 37.4456 38.0833 37.7123 38.45ZM33.1123 43.55C33.679 43.3833 34.1623 43.0167 34.5623 42.45C34.9956 41.8833 35.2623 41.1667 35.3623 40.3C35.3956 39.6333 35.179 39.1833 34.7123 38.95C34.2456 39.65 33.8623 40.4167 33.5623 41.25C33.2956 42.05 33.1456 42.8167 33.1123 43.55ZM71.4408 15.15C71.6408 15.15 71.8408 15.2 72.0408 15.3C72.2742 15.3667 72.4908 15.4833 72.6908 15.65C72.8908 15.8167 73.0575 16 73.1908 16.2C73.3242 16.4 73.3908 16.6 73.3908 16.8L73.7908 29.2C73.7908 29.8333 73.5908 30.25 73.1908 30.45C72.9242 30.55 72.6575 30.5667 72.3908 30.5C72.1242 30.4333 71.8742 30.3167 71.6408 30.15C71.4408 29.9833 71.2742 29.7833 71.1408 29.55C71.0075 29.2833 70.9242 29.05 70.8908 28.85C70.7575 27.8833 70.6575 26.85 70.5908 25.75C70.5242 24.65 70.4742 23.5167 70.4408 22.35C69.2742 22.7833 67.9408 23.35 66.4408 24.05C64.9408 24.75 63.5575 25.4667 62.2908 26.2C61.6242 26.5667 61.1075 26.7 60.7408 26.6C60.3742 26.4667 60.1075 26.2667 59.9408 26C59.6742 25.6 59.6742 25.2 59.9408 24.8C60.2408 24.3667 60.4908 24.0667 60.6908 23.9C61.0575 23.5333 61.6408 23.1333 62.4408 22.7C63.2408 22.2333 64.1075 21.7833 65.0408 21.35C66.0075 20.8833 66.9742 20.45 67.9408 20.05C68.9075 19.6167 69.7408 19.2667 70.4408 19C70.4408 18.6333 70.4408 18.2833 70.4408 17.95C70.4408 17.5833 70.4575 17.2167 70.4908 16.85C70.5242 16.2833 70.5742 15.8833 70.6408 15.65C70.7075 15.3833 70.9742 15.2167 71.4408 15.15ZM56.6908 19.15C56.6575 19.45 56.4242 20.0333 55.9908 20.9C55.5575 21.7333 55.0242 22.6833 54.3908 23.75C53.7908 24.8167 53.1242 25.9167 52.3908 27.05C51.6908 28.15 51.0408 29.1167 50.4408 29.95C50.2742 30.1833 50.0742 30.3833 49.8408 30.55C49.6075 30.7167 49.3742 30.8333 49.1408 30.9C48.9075 30.9333 48.6742 30.9333 48.4408 30.9C48.2075 30.8333 48.0242 30.6833 47.8908 30.45C47.6575 30.1167 47.5575 29.7667 47.5908 29.4C47.6242 29 47.7408 28.6167 47.9408 28.25C48.8075 26.9167 49.5242 25.8 50.0908 24.9C50.6575 23.9667 51.1242 23.1833 51.4908 22.55C51.8575 21.8833 52.1408 21.3333 52.3408 20.9C52.5742 20.4667 52.7908 20.0667 52.9908 19.7C52.0242 19.8667 51.1408 20.1833 50.3408 20.65C49.5742 21.0833 48.7742 21.6333 47.9408 22.3C47.6408 22.5667 47.3075 22.7 46.9408 22.7C46.5742 22.6667 46.2575 22.5667 45.9908 22.4C45.7575 22.2333 45.5908 22 45.4908 21.7C45.3908 21.3667 45.4742 21.0167 45.7408 20.65C46.2408 19.95 46.8075 19.35 47.4408 18.85C48.1075 18.35 48.7908 17.9333 49.4908 17.6C50.2242 17.2667 50.9408 17.0167 51.6408 16.85C52.3742 16.6833 53.0575 16.5667 53.6908 16.5C54.7242 16.4333 55.4908 16.6833 55.9908 17.25C56.5242 17.8167 56.7575 18.45 56.6908 19.15ZM74.5908 35.9C74.3908 37.7667 74.2242 39.45 74.0908 40.95C73.9908 42.45 73.9242 44.0667 73.8908 45.8C73.8242 46.3667 73.6575 46.75 73.3908 46.95C73.1242 47.15 72.8575 47.2667 72.5908 47.3C72.3242 47.3333 72.0075 47.2 71.6408 46.9C71.2742 46.6 71.0575 46.1 70.9908 45.4C70.8575 44.2 70.8408 42.8167 70.9408 41.25C71.0408 39.6833 71.1908 38.0833 71.3908 36.45C70.4242 36.6167 69.3742 36.8833 68.2408 37.25C67.1408 37.5833 66.1242 37.8833 65.1908 38.15C64.7242 38.2833 64.2408 38.3 63.7408 38.2C63.2408 38.1 62.8742 37.8 62.6408 37.3C62.6075 37.2333 62.5742 37.1333 62.5408 37C62.5075 36.8333 62.4908 36.65 62.4908 36.45C62.4908 36.25 62.5408 36.0667 62.6408 35.9C62.7742 35.7 62.9742 35.55 63.2408 35.45C63.6075 35.3167 64.1575 35.1167 64.8908 34.85C65.6242 34.5833 66.4075 34.3333 67.2408 34.1C68.1075 33.8333 68.9742 33.6167 69.8408 33.45C70.7075 33.2833 71.4742 33.2167 72.1408 33.25C72.7408 33.2833 73.2075 33.4 73.5408 33.6C73.8742 33.8 74.1242 34.0333 74.2908 34.3C74.4575 34.5333 74.5575 34.8 74.5908 35.1C74.6242 35.4 74.6242 35.6667 74.5908 35.9ZM56.0908 38.85C55.7575 38.8833 55.4575 38.7333 55.1908 38.4C54.9575 38.0333 54.7742 37.6667 54.6408 37.3C54.3742 36.5333 54.1408 35.7167 53.9408 34.85C53.7408 33.9833 53.5742 33.1333 53.4408 32.3C53.3408 31.4333 53.2575 30.6 53.1908 29.8C53.1242 29 53.0908 28.2833 53.0908 27.65C53.0908 27.2833 53.1075 27 53.1408 26.8C53.2075 26.5667 53.4742 26.4 53.9408 26.3C54.2075 26.2333 54.5742 26.3 55.0408 26.5C55.5408 26.6667 55.8075 26.95 55.8408 27.35C56.0075 28.95 56.2075 30.5333 56.4408 32.1C56.6742 33.6667 56.9408 35.3167 57.2408 37.05C57.3408 37.6167 57.2575 38.05 56.9908 38.35C56.7575 38.65 56.4575 38.8167 56.0908 38.85ZM89.4604 30.1C88.8937 30.3 88.2937 30.4 87.6604 30.4C87.0604 30.4 86.5437 30.1833 86.1104 29.75C85.5437 29.05 85.327 28.25 85.4604 27.35C85.5937 26.45 85.8937 25.55 86.3604 24.65C86.7937 23.7833 87.2937 22.9667 87.8604 22.2C88.427 21.4 88.8604 20.7667 89.1604 20.3C88.127 20.3333 87.0437 20.5 85.9104 20.8C84.777 21.0667 83.7437 21.3167 82.8104 21.55C82.5104 21.6167 82.177 21.5333 81.8104 21.3C81.477 21.0667 81.2104 20.7333 81.0104 20.3C80.8437 20 80.827 19.7 80.9604 19.4C81.127 19.0667 81.3937 18.8333 81.7604 18.7C83.027 18.2333 84.3937 17.8833 85.8604 17.65C87.3604 17.3833 88.6437 17.2333 89.7104 17.2C90.577 17.2 91.327 17.4333 91.9604 17.9C92.627 18.5 92.7437 19.2 92.3104 20C91.7437 21.0667 91.1437 22.15 90.5104 23.25C89.9104 24.35 89.4104 25.5333 89.0104 26.8C89.4104 26.6 89.827 26.3333 90.2604 26C90.727 25.6333 91.177 25.25 91.6104 24.85C92.077 24.45 92.527 24.05 92.9604 23.65C93.3937 23.2167 93.777 22.8333 94.1104 22.5C94.277 22.3333 94.5104 22.2333 94.8104 22.2C95.1104 22.1333 95.3437 22.1667 95.5104 22.3C95.777 22.5 95.8604 22.8333 95.7604 23.3C95.6937 23.7667 95.5604 24.15 95.3604 24.45C95.1937 24.7167 95.027 24.9667 94.8604 25.2C94.6937 25.4 94.527 25.6 94.3604 25.8C94.327 27.6 94.1604 29.4 93.8604 31.2C93.5604 33 93.1604 34.75 92.6604 36.45C93.0937 36.25 93.5937 35.9833 94.1604 35.65C94.727 35.3167 95.2937 34.9667 95.8604 34.6C96.4604 34.2 97.027 33.8167 97.5604 33.45C98.127 33.0833 98.627 32.75 99.0604 32.45C99.3604 32.2833 99.6937 32.25 100.06 32.35C100.46 32.4167 100.744 32.5833 100.91 32.85C101.077 33.1167 101.144 33.4167 101.11 33.75C101.077 34.0833 100.927 34.35 100.66 34.55C99.9604 35.1167 99.2104 35.7 98.4104 36.3C97.6104 36.8667 96.777 37.4333 95.9104 38C95.077 38.5333 94.2104 39.05 93.3104 39.55C92.4104 40.0167 91.5437 40.4167 90.7104 40.75C90.1437 40.9833 89.6104 41.05 89.1104 40.95C88.6437 40.8167 88.327 40.4833 88.1604 39.95C87.9937 39.4833 88.0104 39.0333 88.2104 38.6C88.4437 38.1667 88.727 37.7167 89.0604 37.25C89.3604 36.8167 89.627 36.2667 89.8604 35.6C90.127 34.9333 90.3604 34.2333 90.5604 33.5C90.7604 32.7667 90.927 32.0167 91.0604 31.25C91.1937 30.45 91.2937 29.7 91.3604 29C90.6604 29.5333 90.027 29.9 89.4604 30.1ZM115.16 24.6C115.194 24.7333 115.127 24.8833 114.96 25.05C114.827 25.2167 114.66 25.3833 114.46 25.55C114.26 25.6833 114.044 25.8 113.81 25.9C113.577 26 113.394 26.0667 113.26 26.1C112.227 26.3 111.027 26.55 109.66 26.85C108.294 27.15 107.077 27.4833 106.01 27.85C106.11 29.0167 106.21 30.1333 106.31 31.2C106.444 32.2333 106.56 33.1833 106.66 34.05C106.727 34.4833 106.61 34.7833 106.31 34.95C106.044 35.1167 105.794 35.2 105.56 35.2C105.294 35.2 104.977 35.0667 104.61 34.8C104.277 34.5333 104.027 34.1 103.86 33.5C103.66 32.8 103.46 31.9 103.26 30.8C103.094 29.7 102.96 28.55 102.86 27.35C102.76 26.15 102.71 24.9833 102.71 23.85C102.71 22.6833 102.777 21.6833 102.91 20.85C103.01 20.2167 103.144 19.8167 103.31 19.65C103.477 19.45 103.677 19.35 103.91 19.35C104.277 19.35 104.644 19.5167 105.01 19.85C105.41 20.15 105.61 20.4833 105.61 20.85C105.61 22.15 105.66 23.5 105.76 24.9C106.96 24.5667 108.21 24.2667 109.51 24C110.844 23.7333 112.094 23.6 113.26 23.6C113.727 23.6 114.144 23.7 114.51 23.9C114.91 24.1 115.127 24.3333 115.16 24.6ZM106.91 49.9C106.744 50.4667 106.427 50.85 105.96 51.05C105.527 51.25 105.127 51.2667 104.76 51.1C104.294 50.9 104.027 50.5667 103.96 50.1C103.894 49.6333 103.91 49.2167 104.01 48.85C104.144 48.25 104.277 47.6 104.41 46.9C104.577 46.1667 104.71 45.45 104.81 44.75C104.944 44.0167 105.044 43.3 105.11 42.6C105.21 41.9 105.294 41.2667 105.36 40.7C104.86 40.7333 104.344 40.85 103.81 41.05C103.31 41.25 102.81 41.4833 102.31 41.75C101.844 41.9833 101.377 42.2333 100.91 42.5C100.477 42.7333 100.077 42.9167 99.7104 43.05C99.277 43.2167 98.8104 43.2667 98.3104 43.2C97.8104 43.1 97.477 42.8667 97.3104 42.5C97.1437 42.1667 97.1437 41.8167 97.3104 41.45C97.477 41.05 97.6937 40.7667 97.9604 40.6C98.2604 40.4 98.6937 40.1333 99.2604 39.8C99.8604 39.4667 100.494 39.1333 101.16 38.8C101.86 38.4667 102.577 38.1833 103.31 37.95C104.044 37.7167 104.744 37.6 105.41 37.6C105.71 37.6 106.044 37.6667 106.41 37.8C106.81 37.9 107.16 38.1 107.46 38.4C107.76 38.6667 107.994 39.0167 108.16 39.45C108.36 39.8833 108.444 40.4167 108.41 41.05C108.344 41.7167 108.26 42.4667 108.16 43.3C108.094 44.1 107.994 44.9 107.86 45.7C107.727 46.5 107.577 47.2667 107.41 48C107.244 48.7333 107.077 49.3667 106.91 49.9ZM89.0604 15.1C88.6604 14.1333 88.2104 13.2 87.7104 12.3C87.2437 11.3667 86.7437 10.4167 86.2104 9.45C86.0104 9.15 85.927 8.8 85.9604 8.4C85.9937 8 86.1437 7.7 86.4104 7.5C86.7437 7.3 87.1604 7.31666 87.6604 7.55C88.1604 7.75 88.5104 7.98333 88.7104 8.25C89.1437 8.78333 89.477 9.26666 89.7104 9.7C89.9437 10.1 90.1437 10.5167 90.3104 10.95C90.5104 11.3833 90.677 11.85 90.8104 12.35C90.9437 12.8167 91.127 13.4 91.3604 14.1C91.4604 14.5 91.4937 14.8833 91.4604 15.25C91.427 15.6167 91.2104 15.85 90.8104 15.95C90.5437 16.0167 90.227 16.0167 89.8604 15.95C89.4937 15.85 89.227 15.5667 89.0604 15.1ZM126.314 20.85C126.348 21.0167 126.348 21.2833 126.314 21.65C126.281 21.9833 126.181 22.3 126.014 22.6C126.248 22.5333 126.514 22.5 126.814 22.5C127.148 22.5 127.481 22.5667 127.814 22.7C128.148 22.8 128.448 22.9833 128.714 23.25C129.014 23.5167 129.248 23.8667 129.414 24.3C129.848 25.4667 130.031 26.55 129.964 27.55C129.931 28.55 129.748 29.5 129.414 30.4C129.214 31 128.898 31.6833 128.464 32.45C128.031 33.2167 127.498 33.9167 126.864 34.55C126.264 35.1833 125.598 35.6833 124.864 36.05C124.131 36.3833 123.364 36.4333 122.564 36.2C122.031 36.0667 121.581 35.8333 121.214 35.5C120.848 35.1333 120.548 34.75 120.314 34.35C120.114 33.9167 119.948 33.4833 119.814 33.05C119.714 32.6167 119.664 32.2333 119.664 31.9C119.564 29.5333 119.964 27.35 120.864 25.35C121.764 23.35 122.914 21.5 124.314 19.8C124.514 19.5667 124.714 19.45 124.914 19.45C125.148 19.45 125.364 19.5167 125.564 19.65C125.764 19.7833 125.931 19.9667 126.064 20.2C126.198 20.4333 126.281 20.65 126.314 20.85ZM123.414 33.1C123.981 32.8667 124.548 32.3333 125.114 31.5C125.681 30.6667 126.098 29.8833 126.364 29.15C126.698 28.1833 126.814 27.1833 126.714 26.15C126.614 25.0833 126.248 24.15 125.614 23.35C125.148 24.1167 124.698 24.95 124.264 25.85C123.864 26.7167 123.564 27.6333 123.364 28.6C123.198 29.2667 123.114 30.05 123.114 30.95C123.114 31.8167 123.214 32.5333 123.414 33.1ZM140.564 35.15C140.164 34.9833 139.864 34.7333 139.664 34.4C139.498 34.0667 139.381 33.7667 139.314 33.5C139.214 32.5667 139.164 31.3167 139.164 29.75C139.198 28.15 139.248 26.45 139.314 24.65C139.381 22.85 139.481 21.1333 139.614 19.5C139.781 17.8333 139.964 16.5 140.164 15.5C140.431 14.5333 140.864 14.0833 141.464 14.15C141.931 14.2167 142.314 14.5333 142.614 15.1C142.948 15.6333 143.081 16.15 143.014 16.65C142.848 17.7167 142.714 19.0333 142.614 20.6C142.514 22.1333 142.431 23.7 142.364 25.3C142.298 26.9 142.248 28.45 142.214 29.95C142.181 31.45 142.181 32.7 142.214 33.7C142.181 33.9 142.131 34.1 142.064 34.3C142.031 34.5 141.948 34.6833 141.814 34.85C141.548 35.25 141.131 35.35 140.564 35.15ZM136.814 35.75C136.614 36.95 136.448 38.1167 136.314 39.25C136.181 40.35 136.148 41.4667 136.214 42.6C137.848 42.1333 139.398 41.6 140.864 41C142.331 40.4 143.764 39.6833 145.164 38.85C145.664 38.55 146.098 38.3 146.464 38.1C146.831 37.9 147.098 37.9833 147.264 38.35C147.431 38.7833 147.348 39.3667 147.014 40.1C146.681 40.8333 146.164 41.45 145.464 41.95C144.364 42.6833 142.998 43.4333 141.364 44.2C139.731 44.9667 138.098 45.5333 136.464 45.9C136.264 45.9333 135.964 45.9833 135.564 46.05C135.164 46.0833 134.764 46.0333 134.364 45.9C133.964 45.7667 133.614 45.5167 133.314 45.15C133.014 44.7833 132.864 44.2 132.864 43.4C132.864 42.2333 132.948 40.95 133.114 39.55C133.281 38.1167 133.598 36.7667 134.064 35.5C134.164 35.2333 134.364 34.95 134.664 34.65C134.964 34.35 135.298 34.2 135.664 34.2C136.264 34.2 136.614 34.35 136.714 34.65C136.848 34.95 136.881 35.3167 136.814 35.75ZM164.38 31.7C164.28 32.1333 164.163 32.55 164.03 32.95C163.897 33.35 163.713 33.6833 163.48 33.95C163.28 34.2167 163.013 34.4167 162.68 34.55C162.38 34.65 162.013 34.6167 161.58 34.45C160.913 34.25 160.28 33.8333 159.68 33.2C159.113 32.5333 158.613 31.8167 158.18 31.05C157.747 30.25 157.397 29.4667 157.13 28.7C156.863 27.9 156.713 27.25 156.68 26.75C156.613 26.15 156.73 25.6 157.03 25.1C157.363 24.5667 157.78 24.0833 158.28 23.65C158.78 23.2167 159.347 22.8167 159.98 22.45C160.613 22.0833 161.23 21.7167 161.83 21.35C161.83 20.05 161.813 18.7833 161.78 17.55C161.747 16.2833 161.697 15.1167 161.63 14.05C161.597 13.65 161.697 13.25 161.93 12.85C162.163 12.45 162.563 12.2667 163.13 12.3C163.53 12.3333 163.863 12.4833 164.13 12.75C164.43 13.0167 164.597 13.3333 164.63 13.7C164.697 14.5667 164.747 15.5 164.78 16.5C164.813 17.5 164.847 18.5333 164.88 19.6L175.68 13.4C176.08 13.0667 176.447 12.9 176.78 12.9C177.347 12.9 177.747 13.1 177.98 13.5C178.247 13.8667 178.347 14.3333 178.28 14.9C178.213 15.7667 178.13 16.6333 178.03 17.5C177.963 18.3667 177.88 19.2667 177.78 20.2C177.713 21.1333 177.663 22.1167 177.63 23.15C177.597 24.15 177.597 25.2333 177.63 26.4C177.63 26.7333 177.58 27 177.48 27.2C177.38 27.4 177.247 27.5667 177.08 27.7C176.913 27.8 176.73 27.8833 176.53 27.95C176.363 27.9833 176.23 28 176.13 28C175.33 28 174.813 27.2833 174.58 25.85C174.48 25.3833 174.413 24.8 174.38 24.1C174.38 23.4 174.38 22.6667 174.38 21.9C174.413 21.1 174.447 20.3167 174.48 19.55C174.513 18.75 174.563 18.0167 174.63 17.35L164.93 23.1C164.897 24.9 164.83 26.5667 164.73 28.1C164.663 29.6333 164.547 30.8333 164.38 31.7ZM176.03 32.65C175.963 32.2167 176.013 31.7833 176.18 31.35C176.38 30.9167 176.763 30.6667 177.33 30.6C177.93 30.5333 178.347 30.6833 178.58 31.05C178.847 31.4167 179.013 31.8 179.08 32.2C179.48 34.5 179.63 36.8333 179.53 39.2C179.43 41.5333 178.997 43.95 178.23 46.45C177.997 47.1833 177.58 47.7 176.98 48C176.413 48.3333 175.863 48.45 175.33 48.35C174.297 48.1167 173.497 47.6167 172.93 46.85C172.363 46.05 171.98 45.1667 171.78 44.2C171.58 43.2333 171.547 42.25 171.68 41.25C171.813 40.25 172.047 39.4333 172.38 38.8C172.547 38.4667 172.93 38.0167 173.53 37.45C174.163 36.8833 175.08 36.5167 176.28 36.35C176.28 35.7167 176.247 35.1 176.18 34.5C176.147 33.9 176.097 33.2833 176.03 32.65ZM169.83 33.85C169.73 34.8833 169.663 35.8333 169.63 36.7C169.597 37.5667 169.597 38.4333 169.63 39.3C169.697 40.1333 169.78 41 169.88 41.9C170.013 42.7667 170.163 43.7167 170.33 44.75C170.397 45.2833 170.28 45.6333 169.98 45.8C169.68 45.9333 169.397 46.0167 169.13 46.05C168.597 46.1167 168.18 45.9667 167.88 45.6C167.58 45.2333 167.38 44.8667 167.28 44.5C166.78 42.8 166.497 41.0667 166.43 39.3C166.363 37.5333 166.463 35.7333 166.73 33.9C166.797 33.4 166.963 32.9667 167.23 32.6C167.497 32.2333 167.88 32.0333 168.38 32C169.047 31.9667 169.463 32.15 169.63 32.55C169.83 32.9167 169.897 33.35 169.83 33.85ZM153.93 18.5C153.863 19.8667 153.88 21.3 153.98 22.8C154.113 24.3 154.43 25.8333 154.93 27.4C155.03 27.7 155.113 28.0167 155.18 28.35C155.28 28.65 155.33 28.95 155.33 29.25C155.363 29.55 155.313 29.8167 155.18 30.05C155.08 30.25 154.863 30.3833 154.53 30.45C154.33 30.5167 154.113 30.5 153.88 30.4C153.647 30.3 153.43 30.1667 153.23 30C153.03 29.8 152.847 29.6 152.68 29.4C152.547 29.2 152.43 29 152.33 28.8C151.997 28.0667 151.697 27.1833 151.43 26.15C151.197 25.1167 150.997 24.0667 150.83 23C150.697 21.9 150.63 20.85 150.63 19.85C150.663 18.8167 150.797 17.9333 151.03 17.2C151.197 16.6667 151.43 16.3833 151.73 16.35C152.063 16.3167 152.347 16.3333 152.58 16.4C152.947 16.5 153.28 16.7 153.58 17C153.88 17.2667 153.997 17.7667 153.93 18.5ZM159.73 28.25C159.797 28.45 159.897 28.7167 160.03 29.05C160.197 29.35 160.347 29.6333 160.48 29.9C160.647 30.1667 160.797 30.4 160.93 30.6C161.097 30.7667 161.213 30.85 161.28 30.85C161.413 30.05 161.513 29.15 161.58 28.15C161.68 27.1167 161.747 26.0333 161.78 24.9L161.63 25C160.83 25.4667 160.247 25.95 159.88 26.45C159.513 26.95 159.463 27.55 159.73 28.25ZM174.73 45.25C174.997 45.25 175.213 45.05 175.38 44.65C175.58 44.25 175.763 43.3833 175.93 42.05C175.997 41.55 176.047 41.0833 176.08 40.65C176.113 40.1833 176.163 39.7333 176.23 39.3C175.73 39.5 175.33 39.8333 175.03 40.3C174.73 40.7333 174.513 41.2333 174.38 41.8C174.28 42.3667 174.247 42.9667 174.28 43.6C174.347 44.2 174.497 44.75 174.73 45.25Z" fill="black"/>
</svg>
